Coordinates
version=1
nRows=29
nColumns=22
inDegrees=yes

Units are S.I. units (second, meters, Newtons, ...)
If the header above contains a line with 'inDegrees', this indicates whether rotational values are in degrees (yes) or radians (no).

endheader
time	pelvis_tilt	pelvis_list	pelvis_rotation	pelvis_tx	pelvis_ty	pelvis_tz	hip_flexion_r	hip_adduction_r	hip_rotation_r	knee_angle_r	ankle_angle_r	subtalar_angle_r	hip_flexion_l	hip_adduction_l	hip_rotation_l	knee_angle_l	ankle_angle_l	subtalar_angle_l	lumbar_extension	lumbar_bending	lumbar_rotation
      4.15000000	     -7.33503912	      1.63869675	    -52.15424047	      1.26590357	      0.87376066	      1.07624556	     17.73529155	     -2.60973193	      4.66171752	    -59.02925452	      5.90475041	      4.58346165	     21.89977132	     -5.44923664	     -2.75009028	    -22.18222380	      8.10081303	      1.05769048	     -1.08197879	      3.76419364	     14.70482396
      4.16000000	     -7.58124424	      1.60492520	    -51.93004252	      1.27000146	      0.87472807	      1.07820291	     18.63373110	     -2.23774488	      4.28922841	    -58.33553931	      6.47015840	      4.57229858	     21.58134915	     -5.46286538	     -2.58077372	    -21.80640583	      8.13116377	      0.99654390	     -1.07316272	      3.98831654	     14.07501630
      4.17000000	     -7.83010979	      1.55784195	    -51.69534469	      1.27395624	      0.87566757	      1.08015837	     19.42468883	     -1.83568080	      3.95715237	    -57.42069144	      6.98090347	      4.54915083	     21.27285292	     -5.49571739	     -2.39968433	    -21.44786295	      8.15598744	      0.94547549	     -1.05885230	      4.21893752	     13.45295279
      4.18000000	     -8.08175972	      1.49832905	    -51.44606262	      1.27780149	      0.87657539	      1.08210997	     20.10279762	     -1.41577690	      3.64965273	    -56.28720907	      7.44889994	      4.49255801	     20.97701606	     -5.54571088	     -2.21416369	    -21.10917217	      8.17778169	      0.90207147	     -1.03629586	      4.45779501	     12.84916648
      4.19000000	     -8.33585244	      1.42503077	    -51.18890712	      1.28153133	      0.87745022	      1.08405275	     20.66892244	     -0.97082705	      3.38985278	    -54.94670895	      7.88050127	      4.38222521	     20.69127963	     -5.61223151	     -2.00907981	    -20.79095084	      8.20326497	      0.86307080	     -1.00957721	      4.70891445	     12.25529387
      4.20000000	     -8.58777089	      1.34120697	    -50.92945316	      1.28513650	      0.87828971	      1.08601899	     21.12246109	     -0.50527279	      3.18420927	    -53.41165974	      8.27673639	      4.20588229	     20.41183361	     -5.69438542	     -1.79671542	    -20.49107864	      8.23810929	      0.82862677	     -0.97788867	      4.95926035	     11.68679366
      4.21000000	     -8.83558263	      1.24798061	    -50.66847593	      1.28863844	      0.87908724	      1.08800188	     21.46502762	     -0.02735322	      3.03086304	    -51.69580915	      8.64796953	      3.98212185	     20.13790590	     -5.78872103	     -1.58420674	    -20.20965571	      8.28013185	      0.79848712	     -0.94262290	      5.20997911	     11.14568439
      4.22000000	     -9.07830919	      1.14858700	    -50.40832582	      1.29203338	      0.87983659	      1.09002116	     21.69908043	      0.45962899	      2.93473955	    -49.81175211	      8.98826858	      3.74080012	     19.87113730	     -5.89515370	     -1.37737500	    -19.94900679	      8.33291322	      0.77106407	     -0.89994945	      5.45452816	     10.63513405
      4.23000000	     -9.31244926	      1.04490853	    -50.15326601	      1.29533014	      0.88053574	      1.09207527	     21.82929081	      0.95269622	      2.90877331	    -47.77863756	      9.28678977	      3.48317534	     19.60639565	     -6.00866641	     -1.17357881	    -19.70357054	      8.40584181	      0.74821613	     -0.85255243	      5.69069857	     10.15830564
      4.24000000	     -9.53279063	      0.94326077	    -49.90528360	      1.29853465	      0.88117598	      1.09415690	     21.86290743	      1.44003035	      2.95832156	    -45.61781535	      9.54759425	      3.22272500	     19.34333271	     -6.11984668	     -0.97354649	    -19.47160325	      8.49629680	      0.73259196	     -0.80046764	      5.91056300	      9.72115491
      4.25000000	     -9.73942199	      0.85060903	    -49.66726123	      1.30164910	      0.88174315	      1.09627735	     21.81230468	      1.91063944	      3.07803518	    -43.35289556	      9.76874610	      3.00172619	     19.08691395	     -6.22634721	     -0.78836060	    -19.25424255	      8.59732152	      0.72055871	     -0.73657342	      6.10875551	      9.32637000
      4.26000000	     -9.92320545	      0.76822117	    -49.43856911	      1.30468115	      0.88224335	      1.09842923	     21.68093863	      2.35206899	      3.26735957	    -41.01046693	      9.94510195	      2.80134072	     18.82751511	     -6.31824777	     -0.61581748	    -19.04526416	      8.71736057	      0.71603677	     -0.66828541	      6.27685919	      8.96994228
      4.27000000	    -10.07801616	      0.70130939	    -49.22300862	      1.30763052	      0.88267482	      1.10060357	     21.47859437	      2.74930605	      3.51631603	    -38.61789386	     10.08374573	      2.60885452	     18.56377789	     -6.38641183	     -0.45614558	    -18.84418115	      8.85289563	      0.72088991	     -0.59964435	      6.40721740	      8.65887498
      4.28000000	    -10.19939276	      0.65625516	    -49.01757472	      1.31049275	      0.88302993	      1.10278982	     21.22291899	      3.08967794	      3.81808077	    -36.21263425	     10.19508324	      2.41386858	     18.29834495	     -6.42220716	     -0.31200234	    -18.65101364	      8.99961992	      0.73398169	     -0.52921952	      6.48989037	      8.39475044
      4.29000000	    -10.31640098	      0.64137299	    -48.83406131	      1.31326536	      0.88328344	      1.10500271	     20.95481654	      3.38344500	      4.13566330	    -33.82519740	     10.25846383	      2.24951894	     18.05142861	     -6.44824477	     -0.21256873	    -18.45441409	      9.14334843	      0.73736470	     -0.42694424	      6.55007278	      8.17362497
      4.30000000	    -10.37080956	      0.64071345	    -48.66194071	      1.31595131	      0.88349857	      1.10719403	     20.63150049	      3.59319445	      4.47539174	    -31.48454633	     10.32831115	      1.99609240	     17.77787454	     -6.41967031	     -0.10849002	    -18.27304109	      9.30695804	      0.76038995	     -0.36049640	      6.54341455	      8.00403027
      4.31000000	    -10.43158815	      0.67785240	    -48.51506083	      1.31852687	      0.88360194	      1.10938926	     20.33875746	      3.75737363	      4.80145503	    -29.22209657	     10.35009331	      1.75665396	     17.53670968	     -6.38434579	     -0.05351210	    -18.08536762	      9.46071165	      0.77149971	     -0.25315779	      6.52010432	      7.87548158
      4.32000000	    -10.46032115	      0.74158878	    -48.38610890	      1.32099466	      0.88363865	      1.11155117	     20.04943135	      3.85353661	      5.11400695	    -27.05978526	     10.37021533	      1.46890143	     17.29769974	     -6.31241876	     -0.00981333	    -17.90346154	      9.61272533	      0.78849697	     -0.15086196	      6.45144325	      7.79788289
      4.33000000	    -10.44660275	      0.81660628	    -48.27601115	      1.32334744	      0.88364012	      1.11369986	     19.75071034	      3.89164538	      5.40428486	    -25.01848157	     10.40139623	      1.01521448	     17.03685067	     -6.20767239	      0.03201350	    -17.72047932	      9.75910825	      0.82454075	     -0.07565902	      6.33728506	      7.77634959
      4.34000000	    -10.44394741	      0.91987195	    -48.18323105	      1.32556066	      0.88353722	      1.11579613	     19.50097372	      3.90136197	      5.67371469	    -23.09918356	     10.35078267	      0.68908621	     16.83161410	     -6.10201440	      0.03932837	    -17.57619592	      9.92106711	      0.84168338	      0.02492298	      6.21677723	      7.78893471
      4.35000000	    -10.43051691	      1.04210273	    -48.10997636	      1.32764855	      0.88336702	      1.11785851	     19.27959218	      3.88025452	      5.93201406	    -21.31763540	     10.24313183	      0.38018026	     16.63887199	     -5.98345815	      0.02714635	    -17.43561842	     10.07622619	      0.85795104	      0.12674321	      6.07865912	      7.84286342
      4.36000000	    -10.41351681	      1.18571584	    -48.05466914	      1.32961066	      0.88311644	      1.11988807	     19.09298728	      3.83662239	      6.19377409	    -19.67671981	     10.05730778	      0.12272815	     16.46658113	     -5.85603335	     -0.00815805	    -17.29888002	     10.23067069	      0.87030720	      0.23894043	      5.92713084	      7.92609593
      4.37000000	    -10.38525652	      1.35172158	    -48.00979092	      1.33144175	      0.88278208	      1.12187276	     18.93554468	      3.76700168	      6.48014473	    -18.18013123	      9.79079214	     -0.08200183	     16.31821709	     -5.70989871	     -0.04686800	    -17.17996734	     10.38814657	      0.87994182	      0.35446613	      5.75209239	      8.04088937
      4.38000000	    -10.34211217	      1.53356626	    -47.97387498	      1.33315059	      0.88236800	      1.12380181	     18.79401518	      3.67437055	      6.80967669	    -16.82289915	      9.42804674	     -0.22593101	     16.19184227	     -5.54543270	     -0.09114609	    -17.08942290	     10.55949378	      0.88469886	      0.46432000	      5.55809720	      8.18431473
      4.39000000	    -10.28746071	      1.73614801	    -47.94525593	      1.33473661	      0.88186238	      1.12568460	     18.67374144	      3.55970506	      7.18897644	    -15.60992141	      8.96448741	     -0.29502257	     16.09218326	     -5.36150231	     -0.13812308	    -17.02410794	     10.73783612	      0.88257597	      0.57776347	      5.34226040	      8.35181637
      4.40000000	    -10.23298863	      1.96907761	    -47.91953129	      1.33621310	      0.88124199	      1.12752480	     18.58554157	      3.42275747	      7.61679753	    -14.53621646	      8.40368193	     -0.28938520	     16.02979683	     -5.16131726	     -0.20198267	    -16.97019752	     10.92207776	      0.87329625	      0.71697499	      5.11047504	      8.52113568
      4.41000000	    -10.14456087	      2.21280569	    -47.90208935	      1.33758327	      0.88055412	      1.12930580	     18.49008994	      3.25148293	      8.09670061	    -13.60694749	      7.79599911	     -0.22975788	     15.97606437	     -4.92955762	     -0.27392241	    -16.95499851	     11.13385656	      0.85269160	      0.83349307	      4.84726741	      8.71938036
      4.42000000	    -10.05159160	      2.48981550	    -47.88191390	      1.33886571	      0.87975254	      1.13102602	     18.42559765	      3.04707224	      8.58538742	    -12.81996872	      7.16820001	     -0.13874744	     15.96164525	     -4.67080244	     -0.34586580	    -16.95605940	     11.34779495	      0.82527157	      0.97704930	      4.56268363	      8.91454512
      4.43000000	     -9.94209403	      2.78927057	    -47.85562603	      1.34006835	      0.87886541	      1.13266985	     18.37730644	      2.80622233	      9.05903361	    -12.17700133	      6.57960581	     -0.03847062	     15.97470451	     -4.38051824	     -0.41218623	    -16.98220200	     11.57211690	      0.78964382	      1.12882232	      4.25405662	      9.11033473
